# xmcd
#
# Track frame offsets:
#	150
#	21990
#	46775
#	73198
#	95913
#	116388
#	139578
#	162893
#	184630
#	212403
#	232083
#	254978
#
# Disc length: 3696 seconds
#
# Revision: 1
# Processed by: cddbd v1.4PL0 Copyright (c) Steve Scherf et al.
# Submitted via: EasyCDDAExtractor 5.0.7
#
DISCID=ad0e6e0c
DTITLE=Various Artist - Dung Buon Nua Em
DYEAR=1900
DGENRE=Vietnamese
TTITLE0=Ngoc Lan and Tran Phuc - Thuong Nhau Ngay Mua
TTITLE1=Kim Anh - Duong Nao Em Di
TTITLE2=Tran Phuc - Anh Yeu Em
TTITLE3=Carol Kim - Nuoc Mat Mot Linh Hon
TTITLE4=Duy Quang - Nhung Nu Hon Doi
TTITLE5=Nhu Mai - Mot Doi Yeu Anh
TTITLE6=Tran Phuc - Dan Ba
TTITLE7=Ngoc Lan - Dung Buon Nua Em
TTITLE8=Carol Kim and Tran Phuc - Ta Tinh
TTITLE9=Duy Quang - Huyen Thoai
TTITLE10=Kim Anh - Tinh Vo Canh Bay
TTITLE11=Tran Phuc - 10 Nam Yeu Em
EXTD=
EXTT0=
EXTT1=
EXTT2=
EXTT3=
EXTT4=
EXTT5=
EXTT6=
EXTT7=
EXTT8=
EXTT9=
EXTT10=
EXTT11=
PLAYORDER=
